<?xml version="1.0" standalone="no"?><!DOCTYPE svg PUBLIC "-//W3C//DTD SVG 1.1//EN" "http://www.w3.org/Graphics/SVG/1.1/DTD/svg11.dtd"><svg t="1733062413545" class="icon" viewBox="0 0 1024 1024" version="1.1" xmlns="http://www.w3.org/2000/svg" p-id="4740" xmlns:xlink="http://www.w3.org/1999/xlink" width="200" height="200"><path d="M529.24 373.76h68.92v155.04h-68.92z" fill="#FFD6CF" p-id="4741"></path><path d="M768.42 229.26V149.82A137.84 137.84 0 0 0 630.56 12h-17.24a68.94 68.94 0 0 0-68.94 68.9v103.36A206.76 206.76 0 0 0 751.2 390.98h17.22c103.42 0 103.42-86.12 103.42-86.12L826 297.22a68.9 68.9 0 0 1-57.58-67.96z" fill="#794832" p-id="4742"></path><path d="M908.38 770H201.8l131.84-210.86a138 138 0 0 1 109.62-64.58c2.42-0.12 4.84-0.2 7.28-0.2h78.7l34.46 34.46 34.46-34.46h74.48c3.76 0 7.5 0.16 11.2 0.5a137.78 137.78 0 0 1 108.96 69.74z" fill="#E74444" p-id="4743"></path><path d="M908.38 770H201.8l131.84-210.86a138 138 0 0 1 108.58-64.52h1.04c2.42-0.12 4.84-0.2 7.28-0.2h78.7l34.46 34.46 34.46-34.46h74.48c3.76 0 7.5 0.16 11.2 0.5l1.44 0.14a137.7 137.7 0 0 1 107.52 69.54z" fill="#FF6666" p-id="4744"></path><path d="M718.8 666.62H408.6l-51.7 120.58v224h413.6v-224z" fill="#FFBC50" p-id="4745"></path><path d="M723.76 683.12a17.22 17.22 0 0 1-21.44-11.52l-51.72-172.3a18 18 0 0 1-0.74-4.96h22.78c3.76 0 7.5 0.16 11.2 0.5l1.44 0.14 50 166.68a17.22 17.22 0 0 1-11.54 21.46zM477.54 494.34a17.32 17.32 0 0 1-0.74 4.96l-51.7 172.26a17.24 17.24 0 0 1-33-9.9l50.12-167.06h1.04c2.42-0.12 4.84-0.2 7.28-0.2z" fill="#FFBC50" p-id="4746"></path><path d="M477.068 510.698l15.7-5.446 68.762 198.232-15.702 5.448zM590.32 709.974l-15.62-5.484 69.24-197.23 15.622 5.484z" fill="#FFFFFF" p-id="4747"></path><path d="M523.42 693.34m9.24 0l66.72 0q9.24 0 9.24 9.24l0 95.76q0 9.24-9.24 9.24l-66.72 0q-9.24 0-9.24-9.24l0-95.76q0-9.24 9.24-9.24Z" fill="#1D2847" p-id="4748"></path><path d="M529.66 699.56m6.74 0l59.26 0q6.74 0 6.74 6.74l0 88.3q0 6.74-6.74 6.74l-59.26 0q-6.74 0-6.74-6.74l0-88.3q0-6.74 6.74-6.74Z" fill="#FFFFFF" p-id="4749"></path><path d="M772.96 546.54L565.8 753.62l-36.56 85.26 85.3-36.54 207.16-207.08z" fill="#F3FAFF" p-id="4750"></path><path d="M184.56 632.16h241.28v310H184.56z" fill="#9AC5D6" p-id="4751"></path><path d="M184.56 770H115.62v-68.92a34.48 34.48 0 0 1 68.94 0V770z" fill="#FFD6CF" p-id="4752"></path><path d="M253.5 632.16h103.4v34.46a34.48 34.48 0 0 1-34.48 34.46H288a34.46 34.46 0 0 1-34.46-34.46v-34.46z" fill="#9AC5D6" opacity=".4" p-id="4753"></path><path d="M756.22 709.42L908.38 770l-13.02 91a34.44 34.44 0 0 1-34.12 29.58h-90.74l-63.02-132.4z" fill="#F25353" p-id="4754"></path><path d="M772.94 546.4l48.74 48.72-207.14 207.04-48.72-48.7z" fill="#4AB6FF" p-id="4755"></path><path d="M833.86 534.2a34.44 34.44 0 0 1 0 48.72l-24.38 24.36-48.72-48.72 24.36-24.36a34.5 34.5 0 0 1 48.74 0z" fill="#BDE7FF" p-id="4756"></path><path d="M696.52 622.8l48.74 48.7a34.44 34.44 0 0 1 0 48.72l-24.36 24.36a34.46 34.46 0 0 1-48.74 0l-48.74-48.72a34.42 34.42 0 0 1 0-48.7l24.36-24.36a34.46 34.46 0 0 1 48.74 0z" fill="#FFE9E5" p-id="4757"></path><path d="M529.24 444.76a104 104 0 0 0 17.22 1.46h34.48a104 104 0 0 0 17.22-1.46v-71h-68.92z" fill="#FFC1B6" p-id="4758"></path><path d="M443.06 184.26h241.28V322a103.38 103.38 0 0 1-103.4 103.36h-34.48a103.38 103.38 0 0 1-103.4-103.36V184.26z" fill="#FFE9E5" p-id="4759"></path><path d="M649.02 184.26V322A103.4 103.4 0 0 1 546 425.44h34.9A103.38 103.38 0 0 0 684.34 322V184.26z" fill="#FFD6CF" p-id="4760"></path><path d="M563.7 528.8l-34.46 51.68-86-86c2.42-0.12 4.84-0.2 7.28-0.2h78.7zM683.84 494.84l-85.68 85.64-34.46-51.68 34.46-34.46h74.48c3.76 0 7.5 0.16 11.2 0.5z" fill="#F25353" p-id="4761"></path><path d="M201.8 838.88H141.48a25.84 25.84 0 0 1-25.86-25.84v-77.52h86.18a51.68 51.68 0 1 1 0 103.36z" fill="#FFE9E5" p-id="4762"></path><path d="M684 272.46h8.88a26.6 26.6 0 1 1 0 53.2H684v-53.2z" fill="#FFC1B6" p-id="4763"></path><path d="M443.84 272.46h-8.88a26.6 26.6 0 1 0 0 53.2h9.4" fill="#FFD6CF" p-id="4764"></path><path d="M701.58 201.5v103.36l-32-4c-82-20.94-123.02-116.58-123.02-116.58S512 270.4 425.84 270.4v-68.9a103.36 103.36 0 0 1 103.4-103.36h68.92a103.38 103.38 0 0 1 103.42 103.36z" fill="#93573D" p-id="4765"></path><path d="M541.14 354.74a32.58 32.58 0 0 1-22.24-8 8.36 8.36 0 1 1 11.46-12.18 18.44 18.44 0 0 0 21.56 0 8.36 8.36 0 1 1 11.46 12.18 32.54 32.54 0 0 1-22.24 8z" fill="#FFC1B6" p-id="4766"></path></svg>